<svg xmlns="http://www.w3.org/2000/svg" viewBox="0 0 512 512" width="100%" height="100%">
  <path d="M410.3 4.1h-308.6c-54.6 0-99 44.4-99 99v308.6c0 54.6 44.4 99 99 99h308.6c54.6 0 99-44.4 99-99v-308.6c0-54.6-44.4-99-99-99zm-268 408.8h-68.6v-210.4h68.6v210.4zm-34.3-241c-22.1 0-39.9-17.8-39.9-39.9 0-22 17.8-39.9 39.9-39.9 22.1 0 39.9 17.9 39.9 39.9 0 22.1-17.8 39.9-39.9 39.9zm294.6 241h-68.6v-109.1c0-26.1-.9-59.5-36.2-59.5-36.3 0-41.9 28.3-41.9 57.6v111h-68.6v-210.4h65.8v28.8h.9c9.1-17.3 31.4-35.4 64.5-35.4 69 0 81.7 45.4 81.7 104.4v112.6z" fill="#1C9911"/>
</svg>
