<svg xmlns="http://www.w3.org/2000/svg" viewBox="0 0 512 512" width="100%" height="100%">
  <circle cx="256" cy="256" r="256" fill="#1C9911"/>
  
  <path d="M256.1 110c-80.5 0-146 65.5-146 146 0 25.7 6.7 50.9 19.4 73L110 398l70.7-18.5c21.2 11.6 45.2 17.7 69.4 17.7 80.5 0 146-65.5 146-146s-65.5-146-146-146zm86.2 208.1c-3.6 10-17.7 18.3-24.5 19.3-5.8.8-13.4 1.4-38.4-8.9-32-13.2-52.6-45.7-54.2-47.9-1.6-2.2-13-17.3-13-33s8.1-23.4 11-26.6c2.9-3.2 6.3-4 8.4-4 2.1 0 4.2 0 6.1.1 2 .1 4.6-.7 7.2 5.6 2.6 6.3 9 22 9.8 23.6.8 1.6 1.3 3.5.3 5.6-1 2.1-1.5 3.5-3.1 5.4-1.6 1.9-3.3 4.2-4.7 5.6-1.5 1.5-3.1 3.1-1.3 6.2 1.8 3.1 8 13.1 17.1 21.2 11.7 10.5 21.6 13.7 24.7 15.3 3.1 1.6 4.9 1.3 6.7-.8 1.8-2.1 7.9-9.2 10-12.3 2.1-3.1 4.2-2.6 7.1-1.5 2.9 1 18.6 8.8 21.8 10.4 3.2 1.6 5.3 2.4 6.1 3.7.8 1.3.8 7.6-2.8 17.6z" fill="#FFFFFF"/>
</svg>
