<svg xmlns="http://www.w3.org/2000/svg" viewBox="0 0 512 512" width="100%" height="100%">
  <circle cx="256" cy="256" r="256" fill="#1C9911"/>
  
  <path d="M371.7 151.7c-7.9-10.7-18.4-19.1-30.8-24.8-12.4-5.7-27.7-8.6-45.1-8.6h-81.8c-17.4 0-32.7 2.9-45.1 8.6-12.4 5.7-22.9 14.1-30.8 24.8-7.9 10.7-11.9 23.3-11.9 37.8v133.4c0 14.5 4 27.1 11.9 37.8 7.9 10.7 18.4 19.1 30.8 24.8 12.4 5.7 27.7 8.6 45.1 8.6h81.8c17.4 0 32.7-2.9 45.1-8.6 12.4-5.7 22.9-14.1 30.8-24.8 7.9-10.7 11.9-23.3 11.9-37.8v-133.4c0-14.5-4-27.1-11.9-37.8zm-152.9 170.8v-133.4l102.7 66.7-102.7 66.7z" fill="#FFFFFF"/>
</svg>
